# Blender v2.79 (sub 0) OBJ File: 'barrier.blend'
# www.blender.org
mtllib Barrier.mtl
o Cube_Cube.005
v 1.050000 0.000000 0.590258
v 1.050000 0.100000 0.590258
v 0.950000 0.000000 0.590258
v 0.950000 0.100000 0.590258
v 1.050000 0.000000 -0.573984
v 1.050000 0.100000 -0.573984
v 0.950000 0.000000 -0.573984
v 0.950000 0.100000 -0.573984
v -0.950000 0.000000 0.590258
v -1.050000 0.000000 0.590258
v 1.050000 1.242427 -0.050000
v -0.950000 0.000000 -0.573984
v -0.950000 0.671010 -0.050000
v -1.050000 0.000000 -0.573984
v -1.050000 0.100000 -0.573984
v -0.950000 0.671010 0.050000
v 1.050000 0.162075 0.050000
v 0.950000 0.162075 -0.050000
v 0.950000 0.162075 0.050000
v 1.050000 0.671010 -0.050000
v 1.050000 0.671010 0.050000
v 0.950000 0.671010 -0.050000
v 0.950000 0.671010 0.050000
v -0.950000 0.162075 -0.050000
v -0.950000 0.162075 0.050000
v -1.050000 0.162075 -0.050000
v -1.050000 0.162075 0.050000
v -1.050000 0.671010 -0.050000
v -1.050000 0.671010 0.050000
v 1.050000 0.162075 -0.050000
v 1.050000 1.079958 0.050000
v 1.050000 1.079958 -0.050000
v 0.950000 1.079958 -0.050000
v -0.950000 0.100000 0.590258
v -1.050000 0.100000 0.590258
v -0.950000 0.100000 -0.573984
v 0.950000 1.079958 0.050000
v -1.050000 1.079958 -0.050000
v -1.050000 1.079958 0.050000
v -0.950000 1.242427 0.050000
v -0.950000 1.079958 -0.050000
v -0.950000 1.242427 -0.050000
v 1.050000 1.242427 0.050000
v 0.950000 1.242427 -0.050000
v 0.950000 1.242427 0.050000
v -1.050000 1.242427 -0.050000
v -1.050000 1.242427 0.050000
v -0.950000 1.408290 0.050000
v 1.050000 1.408290 0.050000
v 1.050000 1.408290 -0.050000
v 0.950000 1.408290 -0.050000
v 0.950000 1.408290 0.050000
v -1.050000 1.408290 -0.050000
v -1.050000 1.408290 0.050000
v -0.950000 1.408290 -0.050000
v 1.050000 1.534543 -0.050000
v -0.950000 1.534543 -0.050000
v 0.950000 1.534543 -0.050000
v -0.950000 1.079958 0.050000
v -1.050000 1.534543 0.050000
v -0.950000 1.700406 0.050000
v 1.050000 1.700406 0.050000
v 1.050000 1.700406 -0.050000
v 0.950000 1.700406 -0.050000
v 0.950000 1.700406 0.050000
v -1.050000 1.700406 -0.050000
v -1.050000 1.700406 0.050000
v -0.950000 1.700406 -0.050000
v -0.950000 1.534543 0.050000
v -1.050000 1.534543 -0.050000
v 0.950000 1.534543 0.050000
v 1.050000 1.534543 0.050000
vt 0.056681 0.826962
vt 0.046992 0.817274
vt 0.056681 0.817274
vt 0.491131 0.661518
vt 0.476662 0.636662
vt 0.491131 0.636662
vt 0.488608 0.807763
vt 0.478303 0.797458
vt 0.488608 0.797458
vt 0.985793 0.821081
vt 0.980196 0.811467
vt 0.985793 0.811467
vt 0.958004 0.830218
vt 0.949506 0.821714
vt 0.958007 0.821717
vt 0.025102 0.859773
vt 0.020690 0.852194
vt 0.025102 0.852194
vt 0.514531 0.791285
vt 0.502496 0.779250
vt 0.514531 0.779250
vt 0.521731 0.669126
vt 0.511578 0.651685
vt 0.521731 0.651685
vt 0.484417 0.676947
vt 0.483717 0.748153
vt 0.483174 0.676947
vt 0.488608 0.867153
vt 0.478303 0.909296
vt 0.478303 0.867153
vt 0.983004 0.854593
vt 0.983274 0.827049
vt 0.983485 0.854593
vt 0.478303 0.814707
vt 0.488608 0.814707
vt 0.046992 0.833521
vt 0.056681 0.882829
vt 0.046992 0.882829
vt 0.023055 0.864477
vt 0.022841 0.886190
vt 0.022676 0.864477
vt 0.516670 0.729921
vt 0.517161 0.679953
vt 0.517542 0.729921
vt 0.514531 0.799394
vt 0.502496 0.860645
vt 0.502496 0.799394
vt 0.949501 0.835970
vt 0.957987 0.879238
vt 0.949486 0.879235
vt 0.020690 0.859773
vt 0.958002 0.835973
vt 0.516289 0.679953
vt 0.502496 0.791285
vt 0.478303 0.807763
vt 0.476662 0.661518
vt 0.046992 0.826962
vt 0.056681 0.833521
vt 0.982794 0.827049
vt 0.980196 0.821081
vt 0.488608 0.926038
vt 0.478303 0.943131
vt 0.478303 0.926038
vt 0.046992 0.922449
vt 0.983148 0.882135
vt 0.957975 0.914002
vt 0.023220 0.886190
vt 0.022955 0.907903
vt 0.514531 0.860645
vt 0.502496 0.909863
vt 0.056681 0.938190
vt 0.046992 0.954259
vt 0.046992 0.938190
vt 0.983629 0.897757
vt 0.983148 0.913705
vt 0.983148 0.897757
vt 0.957965 0.941913
vt 0.949469 0.927811
vt 0.957970 0.927814
vt 0.023334 0.920216
vt 0.022955 0.932786
vt 0.022955 0.920216
vt 0.514531 0.929417
vt 0.502496 0.949379
vt 0.502496 0.929417
vt 0.488608 0.956141
vt 0.478303 0.973234
vt 0.478303 0.956141
vt 0.056681 0.966491
vt 0.046992 0.982561
vt 0.046992 0.966491
vt 0.983629 0.925845
vt 0.983148 0.941794
vt 0.983148 0.925845
vt 0.957956 0.966746
vt 0.949460 0.952643
vt 0.957961 0.952646
vt 0.023334 0.942354
vt 0.022955 0.954924
vt 0.022955 0.942354
vt 0.514531 0.964573
vt 0.502496 0.984535
vt 0.502496 0.964573
vt 0.958386 0.952646
vt 0.949464 0.941910
vt 0.514531 0.949378
vt 0.514531 0.909863
vt 0.023334 0.907903
vt 0.958395 0.927814
vt 0.958400 0.914002
vt 0.046508 0.922449
vt 0.046508 0.938190
vt 0.056681 0.922449
vt 0.983629 0.882135
vt 0.488608 0.909296
vt 0.488608 0.943131
vt 0.983629 0.913705
vt 0.056681 0.954259
vt 0.046508 0.966491
vt 0.046508 0.954259
vt 0.023334 0.962503
vt 0.022955 0.962503
vt 0.983629 0.951411
vt 0.983629 0.941794
vt 0.949503 0.830215
vt 0.511578 0.669126
vt 0.484960 0.748153
vt 0.949474 0.913999
vt 0.023334 0.932786
vt 0.488608 0.973234
vt 0.056681 0.982561
vt 0.949456 0.966743
vt 0.023334 0.954924
vt 0.514531 0.984535
vt 0.958390 0.941914
vt 0.983148 0.951411
vt 0.933167 0.728891
vt 0.566384 0.691040
vt 0.933167 0.691040
vt 0.933073 0.769811
vt 0.566289 0.731960
vt 0.933073 0.731960
vt 0.932978 0.772880
vt 0.566289 0.769811
vt 0.566384 0.728891
vt 0.928552 0.836443
vt 0.569651 0.871859
vt 0.928497 0.872330
vt 0.928526 0.793381
vt 0.569624 0.828798
vt 0.928471 0.829269
vt 0.928444 0.786209
vt 0.569679 0.792909
vt 0.569706 0.835971
vt 0.572580 0.839649
vt 0.925011 0.872595
vt 0.572525 0.872227
vt 0.572736 0.800559
vt 0.925168 0.833505
vt 0.572682 0.833138
vt 0.572838 0.794047
vt 0.925222 0.800926
vt 0.925066 0.840017
vt 0.566194 0.772880
vt 0.569598 0.785737
vt 0.925324 0.794415
vn 0.0000 0.0000 1.0000
vn -1.0000 0.0000 0.0000
vn 0.0000 0.0000 -1.0000
vn 1.0000 0.0000 -0.0000
vn 0.0000 0.9935 0.1141
vn 0.0000 0.9931 -0.1176
vn 0.0000 1.0000 0.0000
vn 0.0000 -1.0000 0.0000
usemtl Material.001
s off
f 2/1/1 3/2/1 1/3/1
f 4/4/2 7/5/2 3/6/2
f 8/7/3 5/8/3 7/9/3
f 6/10/4 1/11/4 5/12/4
f 34/13/1 10/14/1 9/15/1
f 35/16/2 14/17/2 10/18/2
f 15/19/3 12/20/3 14/21/3
f 36/22/4 9/23/4 12/24/4
f 19/25/2 22/26/2 18/27/2
f 22/28/3 32/29/3 20/30/3
f 21/31/4 30/32/4 20/33/4
f 22/28/3 30/34/3 18/35/3
f 19/36/1 21/37/1 23/38/1
f 27/39/2 28/40/2 26/41/2
f 16/42/4 24/43/4 13/44/4
f 26/45/3 13/46/3 24/47/3
f 27/48/1 16/49/1 29/50/1
f 15/51/2 27/39/2 26/41/2
f 27/48/5 34/13/5 25/52/5
f 25/53/4 36/22/4 24/43/4
f 36/54/6 26/45/6 24/47/6
f 8/7/6 30/34/6 6/55/6
f 8/56/2 19/25/2 18/27/2
f 4/57/5 17/58/5 19/36/5
f 6/10/4 17/59/4 2/60/4
f 44/61/3 50/62/3 11/63/3
f 21/37/1 37/64/1 23/38/1
f 20/33/4 31/65/4 21/31/4
f 59/66/1 29/50/1 16/49/1
f 29/67/2 38/68/2 28/40/2
f 28/69/3 41/70/3 13/46/3
f 43/71/1 52/72/1 45/73/1
f 11/74/4 49/75/4 43/76/4
f 48/77/1 47/78/1 40/79/1
f 47/80/2 53/81/2 46/82/2
f 46/83/3 55/84/3 42/85/3
f 58/86/3 63/87/3 56/88/3
f 72/89/1 65/90/1 71/91/1
f 56/92/4 62/93/4 72/94/4
f 61/95/1 60/96/1 69/97/1
f 60/98/2 66/99/2 70/100/2
f 70/101/3 68/102/3 57/103/3
f 48/77/4 57/104/4 69/97/4
f 54/105/1 69/97/1 60/96/1
f 53/81/2 60/98/2 70/100/2
f 53/106/3 57/103/3 55/84/3
f 46/83/3 41/70/3 38/107/3
f 39/108/2 46/82/2 38/68/2
f 47/78/1 59/66/1 40/79/1
f 42/109/4 59/66/4 41/110/4
f 33/111/2 45/73/2 44/112/2
f 43/71/1 37/64/1 31/113/1
f 11/74/4 31/65/4 32/114/4
f 11/63/3 33/115/3 44/61/3
f 58/86/3 50/62/3 51/116/3
f 56/92/4 49/75/4 50/117/4
f 72/89/1 52/72/1 49/118/1
f 52/72/2 58/119/2 51/120/2
f 66/99/7 61/121/7 68/122/7
f 64/123/7 62/93/7 63/124/7
f 2/1/1 4/57/1 3/2/1
f 4/4/2 8/56/2 7/5/2
f 8/7/3 6/55/3 5/8/3
f 6/10/4 2/60/4 1/11/4
f 34/13/1 35/125/1 10/14/1
f 35/16/2 15/51/2 14/17/2
f 15/19/3 36/54/3 12/20/3
f 36/22/4 34/126/4 9/23/4
f 19/25/2 23/127/2 22/26/2
f 22/28/3 33/115/3 32/29/3
f 21/31/4 17/59/4 30/32/4
f 22/28/3 20/30/3 30/34/3
f 19/36/1 17/58/1 21/37/1
f 27/39/2 29/67/2 28/40/2
f 16/42/4 25/53/4 24/43/4
f 26/45/3 28/69/3 13/46/3
f 27/48/1 25/52/1 16/49/1
f 15/51/2 35/16/2 27/39/2
f 27/48/5 35/125/5 34/13/5
f 25/53/4 34/126/4 36/22/4
f 36/54/6 15/19/6 26/45/6
f 8/7/6 18/35/6 30/34/6
f 8/56/2 4/4/2 19/25/2
f 4/57/5 2/1/5 17/58/5
f 6/10/4 30/32/4 17/59/4
f 44/61/3 51/116/3 50/62/3
f 21/37/1 31/113/1 37/64/1
f 20/33/4 32/114/4 31/65/4
f 59/66/1 39/128/1 29/50/1
f 29/67/2 39/108/2 38/68/2
f 28/69/3 38/107/3 41/70/3
f 43/71/1 49/118/1 52/72/1
f 11/74/4 50/117/4 49/75/4
f 48/77/1 54/105/1 47/78/1
f 47/80/2 54/129/2 53/81/2
f 46/83/3 53/106/3 55/84/3
f 58/86/3 64/130/3 63/87/3
f 72/89/1 62/131/1 65/90/1
f 56/92/4 63/124/4 62/93/4
f 61/95/1 67/132/1 60/96/1
f 60/98/2 67/133/2 66/99/2
f 70/101/3 66/134/3 68/102/3
f 48/77/4 55/135/4 57/104/4
f 54/105/1 48/77/1 69/97/1
f 53/81/2 54/129/2 60/98/2
f 53/106/3 70/101/3 57/103/3
f 46/83/3 42/85/3 41/70/3
f 39/108/2 47/80/2 46/82/2
f 47/78/1 39/128/1 59/66/1
f 42/109/4 40/79/4 59/66/4
f 33/111/2 37/64/2 45/73/2
f 43/71/1 45/73/1 37/64/1
f 11/74/4 43/76/4 31/65/4
f 11/63/3 32/29/3 33/115/3
f 58/86/3 56/88/3 50/62/3
f 56/92/4 72/94/4 49/75/4
f 72/89/1 71/91/1 52/72/1
f 52/72/2 71/91/2 58/119/2
f 66/99/7 67/133/7 61/121/7
f 64/123/7 65/136/7 62/93/7
usemtl Material.002
f 22/137/3 41/138/3 33/139/3
f 37/140/1 16/141/1 23/142/1
f 33/143/7 59/144/7 37/140/7
f 23/142/8 13/145/8 22/137/8
f 44/146/3 55/147/3 51/148/3
f 52/149/1 40/150/1 45/151/1
f 51/152/7 48/153/7 52/149/7
f 45/151/8 42/154/8 44/146/8
f 58/155/3 68/156/3 64/157/3
f 65/158/1 69/159/1 71/160/1
f 64/161/7 61/162/7 65/158/7
f 71/160/8 57/163/8 58/155/8
f 22/137/3 13/145/3 41/138/3
f 37/140/1 59/144/1 16/141/1
f 33/143/7 41/164/7 59/144/7
f 23/142/8 16/141/8 13/145/8
f 44/146/3 42/154/3 55/147/3
f 52/149/1 48/153/1 40/150/1
f 51/152/7 55/165/7 48/153/7
f 45/151/8 40/150/8 42/154/8
f 58/155/3 57/163/3 68/156/3
f 65/158/1 61/162/1 69/159/1
f 64/161/7 68/166/7 61/162/7
f 71/160/8 69/159/8 57/163/8
