# Blender v2.79 (sub 0) OBJ File: 'BoxTruck.blend'
# www.blender.org
mtllib BoxTruck.mtl
o Cube_Cube.001
v -0.900000 0.000000 2.706092
v -0.900000 0.000000 -2.575000
v 0.900000 0.000000 2.706092
v 0.900000 0.000000 -2.575000
v -0.900000 0.000000 0.000000
v -0.900000 0.750000 2.575000
v 0.900000 0.000000 0.000000
v 0.900000 0.750000 2.575000
v 0.000000 0.000000 2.706092
v -0.900000 0.000000 1.013052
v -0.900000 0.375000 -2.575000
v 0.900000 0.375000 -2.575000
v 0.900000 -0.000000 -1.034036
v 0.450000 0.000000 2.706092
v -0.900000 0.000000 -1.019344
v 0.900000 0.000000 1.013052
v -0.450000 0.000000 2.706092
v 0.900000 -0.000000 2.221378
v 0.900000 0.117866 2.209769
v 0.900000 0.231203 2.175389
v -0.900000 -0.000000 2.221378
v -0.900000 0.187500 -2.575000
v 0.900000 0.187500 -2.575000
v 0.900000 0.000000 -2.257357
v 0.900000 0.187500 2.706092
v 0.675000 0.000000 2.706092
v -0.900000 0.000000 -0.643750
v -0.900000 0.562500 2.706092
v 0.900000 0.000000 0.643750
v 0.900000 2.006101 -2.478716
v -0.225000 0.000000 2.706092
v -0.675000 0.750000 2.706092
v 0.900000 2.006101 2.450017
v 0.846548 1.850008 2.450017
v -0.900000 0.000000 0.643750
v -0.900000 2.006101 -2.478716
v -0.900000 0.562500 -2.575000
v 0.900000 0.000000 -0.643750
v 0.900000 2.006101 1.746945
v 0.900000 0.562500 2.706092
v 0.225000 0.000000 2.706092
v -0.900000 0.000000 -2.257357
v -0.675000 0.000000 2.706092
v 0.675000 0.750000 2.706092
v -0.900000 2.006101 2.450017
v -0.846548 0.982043 2.450017
v -0.900000 0.117866 1.024661
v 0.900000 0.335655 1.114872
v -0.900000 0.117866 -1.045644
v 0.900000 0.427208 1.190008
v 0.900000 0.335655 2.119559
v 0.900000 0.427208 2.044423
v 0.900000 1.125000 -2.493390
v 0.900000 0.502343 1.952870
v 0.900000 0.117866 -1.045644
v 0.900000 0.592554 1.499349
v 0.900000 0.117866 1.024661
v 0.846548 0.982043 2.450017
v 0.900000 0.558174 1.848418
v 0.900000 0.592554 1.735082
v 0.900000 0.604163 1.617215
v -0.900000 1.125000 -2.493390
v -0.900000 1.446602 -2.478716
v -0.900000 0.736718 -2.505791
v 0.900000 1.881750 1.790393
v 0.900000 0.950301 1.753538
v 0.675000 0.562500 2.706092
v 0.900000 0.558174 1.386012
v 0.900000 0.117866 -2.230753
v -0.900000 0.117866 -2.230753
v 0.900000 0.231203 1.059041
v -0.900000 0.950301 1.753538
v -0.900000 1.881750 1.790393
v 0.900000 0.502343 1.281560
v 0.900000 1.446602 -2.478716
v -0.675000 0.562500 2.706092
v 0.900000 0.231203 -1.080025
v 0.900000 0.335655 -2.140542
v 0.900000 0.427208 -2.065406
v 0.900000 0.335655 -1.135855
v 0.900000 0.427208 -1.210991
v 0.900000 0.502343 -1.302544
v 0.900000 0.592554 -1.756065
v 0.900000 0.558174 -1.406996
v 0.900000 0.592554 -1.520332
v 0.900000 0.604163 -1.638199
v 0.900000 0.558174 -1.869402
v 0.900000 0.231203 -2.196372
v 0.900000 0.502343 -1.973854
v -0.900000 0.231203 2.175389
v -0.900000 0.335655 1.114872
v -0.900000 0.427208 1.190008
v -0.900000 0.335655 2.119559
v -0.900000 0.427208 2.044423
v -0.900000 0.502343 1.952870
v -0.900000 0.592554 1.499349
v -0.900000 0.558174 1.848418
v -0.900000 0.592554 1.735082
v -0.900000 0.604163 1.617215
v -0.900000 0.558174 1.386012
v -0.900000 0.231203 1.059041
v -0.900000 0.502343 1.281560
v -0.900000 0.231203 -1.080025
v -0.900000 0.335655 -2.140542
v -0.900000 0.427208 -2.065406
v -0.900000 0.335655 -1.135855
v -0.900000 0.427208 -1.210991
v -0.900000 0.502343 -1.302544
v -0.900000 0.592554 -1.756065
v -0.900000 0.558174 -1.406996
v -0.900000 0.592554 -1.520332
v -0.900000 0.604163 -1.638199
v -0.900000 0.558174 -1.869402
v -0.900000 0.231203 -2.196372
v -0.900000 0.502343 -1.973854
v 0.900000 0.562500 -2.575000
v 0.900000 0.736718 -2.505791
v -0.846548 1.850008 2.450017
v -0.900000 1.881750 2.406066
v 0.900000 1.881750 2.406066
v -0.900000 0.950301 2.406066
v 0.900000 0.950301 2.406066
v 0.900000 1.894551 2.450017
v 0.900000 0.937500 2.450017
v -0.900000 1.894551 2.450017
v -0.900000 0.937500 2.450017
vt 0.467113 0.111903
vt 0.467113 0.149123
vt 0.429137 0.149879
vt 0.429893 0.111903
vt 0.339711 0.524064
vt 0.367099 0.550383
vt 0.312420 0.550383
vt 0.000243 0.997034
vt 0.000243 0.885971
vt 0.298000 0.885971
vt 0.298000 0.997034
vt 0.415165 0.366069
vt 0.388846 0.393360
vt 0.388846 0.338681
vt 0.429137 0.401785
vt 0.725658 0.401785
vt 0.730611 0.685526
vt 0.725658 0.685566
vt 0.429137 0.685566
vt 0.690431 0.149122
vt 0.429893 0.000244
vt 0.467113 0.000244
vt 0.504332 0.000244
vt 0.541552 0.000244
vt 0.578771 0.000244
vt 0.615991 0.000244
vt 0.653211 0.000243
vt 0.690431 0.000243
vt 0.727650 0.000243
vt 0.727650 0.037463
vt 0.727651 0.111902
vt 0.690431 0.111902
vt 0.728407 0.149878
vt 0.310662 0.338681
vt 0.311086 0.375993
vt 0.311510 0.413305
vt 0.311934 0.450618
vt 0.308316 0.485332
vt 0.308163 0.562968
vt 0.307902 0.626858
vt 0.306816 0.738526
vt 0.061170 0.736138
vt 0.019363 0.735213
vt 0.019867 0.712439
vt 0.022773 0.709764
vt 0.058857 0.710873
vt 0.061029 0.532204
vt 0.023412 0.533175
vt 0.020542 0.530472
vt 0.012095 0.492383
vt 0.003285 0.454304
vt 0.001257 0.377731
vt 0.000243 0.339445
vt 0.029071 0.338682
vt 0.030398 0.362731
vt 0.033056 0.385819
vt 0.036941 0.407060
vt 0.041905 0.425636
vt 0.047756 0.440834
vt 0.054270 0.452069
vt 0.061197 0.458911
vt 0.068269 0.461096
vt 0.079662 0.457138
vt 0.086094 0.450425
vt 0.092016 0.439529
vt 0.097201 0.424868
vt 0.101449 0.407007
vt 0.104599 0.386632
vt 0.106527 0.364524
vt 0.107162 0.341535
vt 0.128141 0.341512
vt 0.164711 0.341472
vt 0.201281 0.341431
vt 0.223452 0.341407
vt 0.224137 0.364395
vt 0.241668 0.378000
vt 0.257084 0.391694
vt 0.269789 0.404945
vt 0.279297 0.417249
vt 0.285243 0.428132
vt 0.287397 0.437175
vt 0.285678 0.444031
vt 0.280150 0.448436
vt 0.271027 0.450221
vt 0.276955 0.439042
vt 0.282091 0.424030
vt 0.286239 0.405762
vt 0.289239 0.384940
vt 0.290975 0.362363
vt 0.292251 0.338890
vt 0.429894 0.379156
vt 0.727652 0.379155
vt 0.727652 0.401298
vt 0.429894 0.401299
vt 0.297999 0.885485
vt 0.000243 0.885485
vt 0.000243 0.848265
vt 0.000243 0.811046
vt 0.000243 0.773826
vt 0.297999 0.773826
vt 0.297999 0.811045
vt 0.297999 0.848265
vt 0.297999 0.739012
vt 0.000243 0.739012
vt 0.726894 0.858833
vt 0.726894 0.999757
vt 0.429137 0.999757
vt 0.429137 0.858833
vt 0.727651 0.189178
vt 0.429894 0.189179
vt 0.438736 0.370314
vt 0.718809 0.370313
vt 0.438736 0.198021
vt 0.718809 0.198020
vt 0.032736 0.333488
vt 0.237878 0.322825
vt 0.240966 0.325557
vt 0.026323 0.338195
vt 0.000243 0.335864
vt 0.030245 0.000243
vt 0.161052 0.011936
vt 0.218578 0.012011
vt 0.288443 0.009089
vt 0.316703 0.004525
vt 0.347276 0.003151
vt 0.377850 0.001777
vt 0.408423 0.000402
vt 0.409101 0.015488
vt 0.389939 0.017615
vt 0.371532 0.020079
vt 0.354619 0.023496
vt 0.339851 0.027735
vt 0.327796 0.032634
vt 0.318915 0.038004
vt 0.313551 0.043639
vt 0.310771 0.053417
vt 0.312894 0.058806
vt 0.318739 0.063786
vt 0.328114 0.068060
vt 0.340633 0.071362
vt 0.355739 0.073491
vt 0.373646 0.073413
vt 0.392872 0.072051
vt 0.412792 0.070175
vt 0.415723 0.088473
vt 0.420746 0.119835
vt 0.425769 0.151198
vt 0.428651 0.169189
vt 0.409027 0.172913
vt 0.390338 0.177624
vt 0.373302 0.183142
vt 0.326285 0.217066
vt 0.306837 0.233685
vt 0.297270 0.244491
vt 0.292960 0.252630
vt 0.292947 0.259779
vt 0.297102 0.265865
vt 0.305645 0.270445
vt 0.318247 0.273342
vt 0.334423 0.274445
vt 0.353552 0.273711
vt 0.374899 0.271169
vt 0.420911 0.261117
vt 0.428651 0.288765
vt 0.318494 0.319604
vt 0.279681 0.322406
vt 0.230596 0.287929
vt 0.145747 0.311195
vt 0.388360 0.338681
vt 0.386229 0.523578
vt 0.350633 0.523578
vt 0.350633 0.338681
vt 0.429137 0.858347
vt 0.429137 0.686052
vt 0.709209 0.686052
vt 0.709209 0.858347
vt 0.314551 0.523578
vt 0.312420 0.338681
vt 0.350147 0.338681
vt 0.350147 0.523578
vn -0.2652 0.3182 0.9102
vn -0.4362 0.4991 0.7487
vn 0.0000 0.0000 -1.0000
vn 0.4362 0.4991 0.7487
vn 0.0000 1.0000 0.0000
vn 0.0000 0.0000 1.0000
vn 0.2652 0.3182 0.9102
vn 1.0000 0.0000 0.0000
vn 0.0000 0.3692 -0.9294
vn 0.0000 0.0381 -0.9993
vn 0.0000 0.8068 0.5908
vn -1.0000 0.0000 0.0000
usemtl body.material
s off
f 76/1/1 32/2/1 6/3/1 28/4/1
f 6/5/2 32/6/2 126/7/2
f 63/8/3 36/9/3 30/10/3 75/11/3
f 8/12/4 124/13/4 44/14/4
f 45/15/5 33/16/5 39/17/5 30/18/5 36/19/5
f 44/20/6 32/2/6 76/1/6 28/4/6 1/21/6 43/22/6 17/23/6 31/24/6 9/25/6 41/26/6 14/27/6 26/28/6 3/29/6 25/30/6 40/31/6 67/32/6
f 40/31/7 8/33/7 44/20/7 67/32/7
f 4/34/8 23/35/8 12/36/8 116/37/8 117/38/8 53/39/8 75/40/8 30/41/8 39/42/8 33/43/8 123/44/8 120/45/8 65/46/8 66/47/8 122/48/8 124/49/8 8/50/8 40/51/8 25/52/8 3/53/8 18/54/8 19/55/8 20/56/8 51/57/8 52/58/8 54/59/8 59/60/8 60/61/8 61/62/8 56/63/8 68/64/8 74/65/8 50/66/8 48/67/8 71/68/8 57/69/8 16/70/8 29/71/8 7/72/8 38/73/8 13/74/8 55/75/8 77/76/8 80/77/8 81/78/8 82/79/8 84/80/8 85/81/8 86/82/8 83/83/8 87/84/8 89/85/8 79/86/8 78/87/8 88/88/8 69/89/8 24/90/8
f 125/91/6 123/92/6 33/93/6 45/94/6
f 4/95/3 2/96/3 22/97/3 11/98/3 37/99/3 116/100/3 12/101/3 23/102/3
f 117/103/9 116/100/9 37/99/9 64/104/9
f 75/105/10 117/106/10 64/107/10 63/108/10
f 32/2/11 44/20/11 124/109/11 126/110/11
f 118/111/6 34/112/6 123/92/6 125/91/6
f 46/113/6 118/111/6 125/91/6 126/110/6
f 34/112/6 58/114/6 124/109/6 123/92/6
f 58/114/6 46/113/6 126/110/6 124/109/6
f 119/115/12 121/116/12 126/117/12 125/118/12
f 122/48/8 120/45/8 123/44/8 124/49/8
f 125/118/12 45/119/12 36/120/12 63/121/12 62/122/12 64/123/12 37/124/12 11/125/12 22/126/12 2/127/12 42/128/12 70/129/12 114/130/12 104/131/12 105/132/12 115/133/12 113/134/12 109/135/12 112/136/12 111/137/12 110/138/12 108/139/12 107/140/12 106/141/12 103/142/12 49/143/12 15/144/12 27/145/12 5/146/12 35/147/12 10/148/12 47/149/12 101/150/12 91/151/12 92/152/12 102/153/12 100/154/12 96/155/12 99/156/12 98/157/12 97/158/12 95/159/12 94/160/12 93/161/12 90/162/12 21/163/12 1/164/12 28/165/12 6/166/12 126/117/12 121/116/12 72/167/12 73/168/12 119/115/12
usemtl window.material
f 66/169/8 65/170/8 120/171/8 122/172/8
f 118/173/6 46/174/6 58/175/6 34/176/6
f 73/177/12 72/178/12 121/179/12 119/180/12
