# Blender v2.79 (sub 0) OBJ File: 'Bus.blend'
# www.blender.org
mtllib Bus.mtl
o Cube_Cube.001
v -0.900000 0.000000 3.687655
v -0.900000 0.000000 -3.768489
v 0.900000 0.000000 3.687655
v 0.900000 0.000000 -3.768489
v -0.900000 0.750000 3.556563
v 0.900000 0.750000 3.556563
v 0.000000 0.000000 3.687655
v -0.900000 0.000000 1.994615
v -0.900000 0.375000 -3.768489
v 0.900000 0.375000 -3.768489
v 0.900000 -0.000000 -2.034637
v 0.450000 0.000000 3.687655
v -0.900000 0.000000 -2.019945
v 0.900000 0.000000 1.994615
v -0.450000 0.000000 3.687655
v 0.900000 -0.000000 3.202941
v 0.900000 0.117866 3.191332
v 0.900000 0.231203 3.156952
v -0.900000 -0.000000 3.202941
v -0.900000 0.187500 -3.768489
v 0.900000 0.187500 -3.768489
v 0.900000 0.000000 -3.257958
v 0.900000 0.187500 3.687655
v 0.675000 0.000000 3.687655
v -0.900000 0.562500 3.687655
v 0.900000 2.006101 -3.672205
v -0.225000 0.000000 3.687655
v -0.675000 0.750000 3.687655
v 0.900000 2.006101 3.431580
v 0.846548 1.850008 3.431580
v -0.900000 2.006101 -3.672205
v -0.900000 0.562500 -3.768489
v 0.900000 2.006101 2.728508
v 0.900000 0.562500 3.687655
v 0.225000 0.000000 3.687655
v -0.900000 0.000000 -3.257958
v -0.675000 0.000000 3.687655
v 0.675000 0.750000 3.687655
v -0.900000 2.006101 3.431580
v -0.846548 0.982043 3.431580
v -0.900000 0.117866 2.006224
v 0.900000 0.335655 2.096435
v -0.900000 0.117866 -2.046246
v 0.900000 0.427208 2.171570
v 0.900000 0.335655 3.101121
v 0.900000 0.427208 3.025985
v 0.900000 1.125000 -3.686879
v 0.900000 0.502343 2.934433
v 0.900000 0.117866 -2.046246
v 0.900000 0.592554 2.480911
v 0.900000 0.117866 2.006224
v 0.846548 0.982043 3.431580
v 0.900000 0.558174 2.829981
v 0.900000 0.592554 2.716644
v 0.900000 0.604163 2.598778
v -0.900000 1.125000 -3.686879
v -0.900000 1.446602 -3.672205
v -0.900000 0.736718 -3.699280
v 0.900000 1.881750 2.771955
v 0.900000 0.950301 2.735101
v 0.675000 0.562500 3.687655
v 0.900000 0.558174 2.367575
v 0.900000 0.117866 -3.231354
v -0.900000 0.117866 -3.231354
v 0.900000 0.231203 2.040604
v -0.900000 0.950301 2.735101
v -0.900000 1.881750 2.771955
v 0.900000 0.502343 2.263123
v 0.900000 1.446602 -3.672205
v -0.675000 0.562500 3.687655
v 0.900000 0.231203 -2.080626
v 0.900000 0.335655 -3.141143
v 0.900000 0.427208 -3.066008
v 0.900000 0.335655 -2.136457
v 0.900000 0.427208 -2.211592
v 0.900000 0.502343 -2.303145
v 0.900000 0.592554 -2.756666
v 0.900000 0.558174 -2.407597
v 0.900000 0.592554 -2.520934
v 0.900000 0.604163 -2.638800
v 0.900000 0.558174 -2.870003
v 0.900000 0.231203 -3.196974
v 0.900000 0.502343 -2.974455
v -0.900000 0.231203 3.156952
v -0.900000 0.335655 2.096435
v -0.900000 0.427208 2.171570
v -0.900000 0.335655 3.101121
v -0.900000 0.427208 3.025985
v -0.900000 0.502343 2.934433
v -0.900000 0.592554 2.480911
v -0.900000 0.558174 2.829981
v -0.900000 0.592554 2.716644
v -0.900000 0.604163 2.598778
v -0.900000 0.558174 2.367575
v -0.900000 0.231203 2.040604
v -0.900000 0.502343 2.263123
v -0.900000 0.231203 -2.080626
v -0.900000 0.335655 -3.141143
v -0.900000 0.427208 -3.066008
v -0.900000 0.335655 -2.136457
v -0.900000 0.427208 -2.211592
v -0.900000 0.502343 -2.303145
v -0.900000 0.592554 -2.756666
v -0.900000 0.558174 -2.407597
v -0.900000 0.592554 -2.520934
v -0.900000 0.604163 -2.638800
v -0.900000 0.558174 -2.870003
v -0.900000 0.231203 -3.196974
v -0.900000 0.502343 -2.974455
v 0.900000 0.562500 -3.768489
v 0.900000 0.736718 -3.699280
v -0.846548 1.850008 3.431580
v -0.900000 1.881750 3.387629
v 0.900000 1.881750 3.387629
v -0.900000 0.950301 3.387629
v 0.900000 0.950301 3.387629
v 0.900000 1.894551 3.431580
v 0.900000 0.937500 3.431580
v -0.900000 1.894551 3.431580
v -0.900000 0.937500 3.431580
v -0.900000 1.933051 -3.672205
v -0.900000 0.968926 -3.691864
v 0.900000 1.840463 -3.672205
v 0.900000 0.953996 -3.692341
v -0.900000 1.908171 -0.583648
v -0.900000 0.959894 -0.574977
v 0.900000 1.860486 -0.583648
v 0.900000 0.952204 -0.575223
v 0.900000 1.416026 2.753528
v -0.900000 1.919685 -2.030008
v 0.900000 1.851219 -2.030008
v -0.900000 1.897321 0.779341
v -0.900000 0.955954 0.784375
v 0.900000 1.869218 0.779341
v 0.900000 0.951423 0.784230
v 0.900000 1.183163 2.744314
v -0.900000 1.925686 -2.783797
v 0.900000 1.846390 -2.783797
v 0.900000 0.953466 -2.769664
v -0.900000 1.902680 0.106173
v -0.900000 0.957900 0.113003
v 0.900000 1.864906 0.106173
v 0.900000 0.951809 0.112808
v 0.900000 1.648888 2.762742
v -0.900000 1.913813 -1.292314
v -0.900000 0.961942 -1.281752
v 0.900000 1.855946 -1.292314
v 0.900000 0.952611 -1.282050
v -0.900000 1.891029 1.414809
v -0.900000 0.953670 1.417734
v 0.900000 1.874282 1.414809
v 0.900000 0.950970 1.417647
v 0.900000 1.066732 2.739707
v -0.900000 1.926217 -2.850476
v -0.900000 0.966445 -2.835756
v 0.900000 1.845963 -2.850476
v -0.900000 1.903195 0.041503
v -0.900000 0.958087 0.048505
v 0.900000 1.864491 0.041503
v 0.900000 0.951846 0.048306
v 0.900000 1.532457 2.758135
v -0.900000 1.914351 -1.359894
v -0.900000 0.962137 -1.349152
v 0.900000 1.855513 -1.359894
v 0.900000 0.952650 -1.349455
v -0.900000 1.891850 1.355657
v -0.900000 0.953968 1.358857
v 0.900000 1.873622 1.355657
v 0.900000 0.951029 1.358763
v 0.900000 1.299595 2.748921
v -0.900000 1.920187 -2.092957
v 0.900000 1.850816 -2.092957
v 0.900000 0.953070 -2.080616
v -0.900000 1.897781 0.721486
v -0.900000 0.956122 0.726674
v 0.900000 1.868848 0.721486
v 0.900000 0.951456 0.726525
v 0.900000 1.765319 2.767349
v -0.900000 1.908740 -0.655026
v -0.900000 0.960100 -0.646165
v 0.900000 1.860029 -0.655026
v 0.900000 0.952245 -0.646416
v -0.900000 1.888381 1.904497
v -0.900000 0.952709 1.906534
v 0.900000 1.876413 1.904497
v 0.900000 0.950779 1.906472
v -0.900000 0.964074 -2.017478
v -0.900000 0.964256 -2.080258
v -0.900000 0.966253 -2.769255
v 0.900000 0.953504 -2.836169
v 0.900000 0.953034 -2.017830
vt 0.467113 0.149123
vt 0.429893 0.111903
vt 0.467113 0.111903
vt 0.339711 0.524064
vt 0.367099 0.550383
vt 0.312420 0.550383
vt 0.000243 0.900472
vt 0.298000 0.885971
vt 0.298000 0.918851
vt 0.415165 0.366069
vt 0.388846 0.393360
vt 0.388846 0.338681
vt 0.730611 0.685526
vt 0.725658 0.685566
vt 0.429137 0.685566
vt 0.467113 0.000244
vt 0.504332 0.000244
vt 0.727651 0.111902
vt 0.690431 0.149122
vt 0.690431 0.111902
vt 0.068269 0.461096
vt 0.079662 0.457138
vt 0.076479 0.531990
vt 0.727652 0.379155
vt 0.429894 0.401299
vt 0.429894 0.379156
vt 0.297999 0.811045
vt 0.297999 0.848265
vt 0.000243 0.848265
vt 0.297999 0.773826
vt 0.000243 0.739012
vt 0.297999 0.739012
vt 0.726894 0.999757
vt 0.429137 0.858833
vt 0.726894 0.858833
vt 0.429894 0.189179
vt 0.718809 0.370313
vt 0.438736 0.370314
vt 0.438736 0.198021
vt 0.718809 0.198020
vt 0.727651 0.189178
vt 0.237878 0.322825
vt 0.026323 0.338195
vt 0.032736 0.333488
vt 0.023412 0.533175
vt 0.019867 0.712439
vt 0.020542 0.530472
vt 0.145747 0.311195
vt 0.000243 0.335864
vt 0.373646 0.073413
vt 0.392872 0.072051
vt 0.409027 0.172913
vt 0.022773 0.709764
vt 0.058857 0.710873
vt 0.061170 0.736138
vt 0.231600 0.270611
vt 0.230596 0.287929
vt 0.074375 0.710535
vt 0.061029 0.532204
vt 0.105410 0.709859
vt 0.091930 0.531776
vt 0.107380 0.531562
vt 0.233608 0.235974
vt 0.133444 0.272516
vt 0.127292 0.253177
vt 0.136445 0.709183
vt 0.122830 0.531347
vt 0.138280 0.531133
vt 0.167480 0.708508
vt 0.153730 0.530919
vt 0.169180 0.530705
vt 0.235616 0.201337
vt 0.121141 0.233838
vt 0.114990 0.214499
vt 0.237624 0.166701
vt 0.108838 0.195160
vt 0.102687 0.175821
vt 0.198515 0.707832
vt 0.184630 0.530490
vt 0.200080 0.530276
vt 0.229550 0.707156
vt 0.215530 0.530062
vt 0.230980 0.529848
vt 0.260585 0.706481
vt 0.246430 0.529633
vt 0.261880 0.529419
vt 0.291620 0.705805
vt 0.277330 0.529205
vt 0.292780 0.528991
vt 0.239632 0.132064
vt 0.096535 0.156482
vt 0.090384 0.137143
vt 0.241640 0.097428
vt 0.084232 0.117804
vt 0.078081 0.098465
vt 0.243649 0.062791
vt 0.071930 0.079126
vt 0.065778 0.059787
vt 0.245657 0.028155
vt 0.059627 0.040448
vt 0.053475 0.021109
vt 0.429137 0.149879
vt 0.298000 0.997034
vt 0.000243 0.997034
vt 0.000243 0.885971
vt 0.429137 0.401785
vt 0.725658 0.401785
vt 0.429893 0.000244
vt 0.727650 0.037463
vt 0.690431 0.000243
vt 0.727650 0.000243
vt 0.578771 0.000244
vt 0.615991 0.000244
vt 0.653211 0.000243
vt 0.541552 0.000244
vt 0.728407 0.149878
vt 0.292251 0.338890
vt 0.310662 0.338681
vt 0.290975 0.362363
vt 0.311086 0.375993
vt 0.311510 0.413305
vt 0.311934 0.450618
vt 0.282091 0.424030
vt 0.308316 0.485332
vt 0.271027 0.450221
vt 0.276955 0.439042
vt 0.289239 0.384940
vt 0.308230 0.528776
vt 0.286239 0.405762
vt 0.280150 0.448436
vt 0.285678 0.444031
vt 0.287397 0.437175
vt 0.285243 0.428132
vt 0.279297 0.417249
vt 0.269789 0.404945
vt 0.257084 0.391694
vt 0.104599 0.386632
vt 0.101449 0.407007
vt 0.097201 0.424868
vt 0.092016 0.439529
vt 0.086094 0.450425
vt 0.241668 0.378000
vt 0.012095 0.492383
vt 0.003285 0.454304
vt 0.054270 0.452069
vt 0.001257 0.377731
vt 0.036941 0.407060
vt 0.000243 0.339445
vt 0.030398 0.362731
vt 0.029071 0.338682
vt 0.061197 0.458911
vt 0.041905 0.425636
vt 0.033056 0.385819
vt 0.047756 0.440834
vt 0.224137 0.364395
vt 0.107162 0.341535
vt 0.223452 0.341407
vt 0.106527 0.364524
vt 0.727652 0.401298
vt 0.297999 0.885485
vt 0.000243 0.885485
vt 0.000243 0.811046
vt 0.000243 0.773826
vt 0.429137 0.999757
vt 0.240966 0.325557
vt 0.030245 0.000243
vt 0.047324 0.001770
vt 0.139595 0.291855
vt 0.292960 0.252630
vt 0.232604 0.253292
vt 0.297270 0.244491
vt 0.292947 0.259779
vt 0.306837 0.233685
vt 0.234612 0.218656
vt 0.326285 0.217066
vt 0.236620 0.184019
vt 0.373302 0.183142
vt 0.390338 0.177624
vt 0.238628 0.149383
vt 0.340633 0.071362
vt 0.240636 0.114746
vt 0.355739 0.073491
vt 0.279681 0.322406
vt 0.297102 0.265865
vt 0.428651 0.288765
vt 0.318494 0.319604
vt 0.374899 0.271169
vt 0.305645 0.270445
vt 0.353552 0.273711
vt 0.328114 0.068060
vt 0.242645 0.080109
vt 0.318739 0.063786
vt 0.312894 0.058806
vt 0.244653 0.045473
vt 0.310771 0.053417
vt 0.246661 0.010836
vt 0.288443 0.009089
vt 0.316703 0.004525
vt 0.318915 0.038004
vt 0.347276 0.003151
vt 0.339851 0.027735
vt 0.327796 0.032634
vt 0.377850 0.001777
vt 0.408423 0.000402
vt 0.389939 0.017615
vt 0.409101 0.015488
vt 0.371532 0.020079
vt 0.313551 0.043639
vt 0.420911 0.261117
vt 0.334423 0.274445
vt 0.318247 0.273342
vt 0.354619 0.023496
vt 0.412792 0.070175
vt 0.428651 0.169189
vt 0.089892 0.710197
vt 0.120927 0.709521
vt 0.151962 0.708845
vt 0.182997 0.708170
vt 0.306816 0.738526
vt 0.214032 0.707494
vt 0.245067 0.706818
vt 0.276102 0.706143
vt 0.307137 0.705467
vt 0.019363 0.735213
vt 0.387028 0.454242
vt 0.350633 0.523578
vt 0.387295 0.431129
vt 0.429137 0.686052
vt 0.709209 0.858347
vt 0.429137 0.858347
vt 0.314551 0.523578
vt 0.350147 0.338681
vt 0.350147 0.523578
vt 0.350633 0.338681
vt 0.388360 0.338681
vt 0.388094 0.361793
vt 0.387827 0.384905
vt 0.387561 0.408017
vt 0.386229 0.523578
vt 0.386496 0.500466
vt 0.386762 0.477354
vt 0.709209 0.686052
vt 0.312420 0.338681
vn 0.0000 0.0000 1.0000
vn -0.4362 0.4991 0.7487
vn 0.0000 0.0000 -1.0000
vn 0.4362 0.4991 0.7487
vn 0.0000 1.0000 0.0000
vn 1.0000 0.0000 0.0000
vn 0.0000 0.3692 -0.9294
vn 0.0000 0.0381 -0.9993
vn 0.0000 0.8068 0.5908
vn -1.0000 0.0000 0.0000
vn -0.4309 0.5171 0.7396
vn 0.4309 0.5171 0.7396
vn -1.0000 0.0001 0.0000
vn -1.0000 -0.0001 0.0000
usemtl body.material
s off
f 28/1/1 25/2/1 70/3/1
f 5/4/2 28/5/2 120/6/2
f 121/7/3 26/8/3 123/9/3
f 6/10/4 118/11/4 38/12/4
f 33/13/5 26/14/5 31/15/5
f 70/3/1 37/16/1 15/17/1
f 34/18/1 38/19/1 61/20/1
f 55/21/6 50/22/6 186/23/6
f 117/24/1 39/25/1 119/26/1
f 10/27/3 21/28/3 20/29/3
f 110/30/7 58/31/7 111/32/7
f 111/33/8 57/34/8 69/35/8
f 38/19/9 120/36/9 28/1/9
f 30/37/1 119/26/1 112/38/1
f 40/39/1 119/26/1 120/36/1
f 52/40/1 117/24/1 30/37/1
f 40/39/1 118/41/1 52/40/1
f 115/42/10 119/43/10 113/44/10
f 116/45/6 117/46/6 118/47/6
f 67/48/10 113/44/10 39/49/10
f 97/50/10 43/51/10 41/52/10
f 114/53/6 59/54/6 33/55/6
f 67/48/10 184/56/10 66/57/10
f 185/58/6 60/59/6 186/23/6
f 168/60/6 152/61/6 169/62/6
f 167/63/10 149/64/10 166/65/10
f 176/66/6 135/67/6 177/68/6
f 159/69/6 143/70/6 160/71/6
f 175/72/10 132/73/10 174/74/10
f 158/75/10 140/76/10 157/77/10
f 181/78/6 128/79/6 182/80/6
f 164/81/6 148/82/6 165/83/6
f 172/84/6 191/85/6 173/86/6
f 156/87/6 139/88/6 190/89/6
f 180/90/10 125/91/10 179/92/10
f 163/93/10 145/94/10 162/95/10
f 188/96/10 130/97/10 171/98/10
f 155/99/10 137/100/10 154/101/10
f 28/1/11 5/102/11 25/2/11
f 69/103/3 57/104/3 123/9/3
f 57/104/3 121/7/3 123/9/3
f 121/7/3 31/105/3 26/8/3
f 31/15/5 39/106/5 33/13/5
f 39/106/5 29/107/5 33/13/5
f 61/20/1 38/19/1 28/1/1
f 70/3/1 25/2/1 1/108/1
f 61/20/1 28/1/1 70/3/1
f 23/109/1 34/18/1 61/20/1
f 24/110/1 3/111/1 23/109/1
f 7/112/1 35/113/1 61/20/1
f 35/113/1 12/114/1 61/20/1
f 7/112/1 61/20/1 70/3/1
f 12/114/1 24/110/1 23/109/1
f 23/109/1 61/20/1 12/114/1
f 70/3/1 1/108/1 37/16/1
f 15/17/1 27/115/1 70/3/1
f 27/115/1 7/112/1 70/3/1
f 34/18/12 6/116/12 38/19/12
f 22/117/6 4/118/6 63/119/6
f 4/118/6 21/120/6 63/119/6
f 10/121/6 110/122/6 73/123/6
f 110/122/6 111/124/6 81/125/6
f 73/123/6 110/122/6 83/126/6
f 21/120/6 10/121/6 82/127/6
f 63/119/6 21/120/6 82/127/6
f 111/124/6 124/128/6 190/89/6
f 82/127/6 10/121/6 72/129/6
f 72/129/6 10/121/6 73/123/6
f 111/124/6 190/89/6 77/130/6
f 190/89/6 139/88/6 80/131/6
f 77/130/6 190/89/6 80/131/6
f 173/86/6 191/85/6 79/132/6
f 191/85/6 165/83/6 78/133/6
f 173/86/6 79/132/6 80/131/6
f 139/88/6 173/86/6 80/131/6
f 83/126/6 110/122/6 81/125/6
f 165/83/6 148/82/6 76/134/6
f 79/132/6 191/85/6 78/133/6
f 148/82/6 182/80/6 75/135/6
f 182/80/6 128/79/6 74/136/6
f 128/79/6 160/71/6 74/136/6
f 160/71/6 143/70/6 65/137/6
f 143/70/6 177/68/6 42/138/6
f 42/138/6 177/68/6 44/139/6
f 177/68/6 135/67/6 44/139/6
f 135/67/6 169/62/6 68/140/6
f 152/61/6 186/23/6 62/141/6
f 186/23/6 60/59/6 55/21/6
f 62/141/6 186/23/6 50/22/6
f 135/67/6 68/140/6 44/139/6
f 169/62/6 152/61/6 68/140/6
f 76/134/6 148/82/6 75/135/6
f 77/130/6 81/125/6 111/124/6
f 78/133/6 165/83/6 76/134/6
f 75/135/6 182/80/6 74/136/6
f 60/59/6 116/45/6 118/47/6
f 74/136/6 160/71/6 71/142/6
f 60/59/6 118/47/6 6/143/6
f 6/143/6 34/144/6 53/145/6
f 34/144/6 23/146/6 45/147/6
f 23/146/6 3/148/6 17/149/6
f 3/148/6 16/150/6 17/149/6
f 60/59/6 6/143/6 54/151/6
f 34/144/6 45/147/6 46/152/6
f 68/140/6 152/61/6 62/141/6
f 23/146/6 17/149/6 18/153/6
f 23/146/6 18/153/6 45/147/6
f 71/142/6 160/71/6 65/137/6
f 34/144/6 46/152/6 48/154/6
f 34/144/6 48/154/6 53/145/6
f 49/155/6 71/142/6 65/137/6
f 14/156/6 11/157/6 51/158/6
f 11/157/6 49/155/6 51/158/6
f 6/143/6 53/145/6 54/151/6
f 65/137/6 51/158/6 49/155/6
f 42/138/6 65/137/6 143/70/6
f 60/59/6 54/151/6 55/21/6
f 117/24/1 29/159/1 39/25/1
f 21/28/3 4/160/3 2/161/3
f 20/29/3 9/162/3 10/27/3
f 9/162/3 32/163/3 10/27/3
f 21/28/3 2/161/3 20/29/3
f 32/163/3 110/30/3 10/27/3
f 110/30/7 32/163/7 58/31/7
f 111/33/8 58/164/8 57/34/8
f 38/19/9 118/41/9 120/36/9
f 30/37/1 117/24/1 119/26/1
f 40/39/1 112/38/1 119/26/1
f 52/40/1 118/41/1 117/24/1
f 40/39/1 120/36/1 118/41/1
f 115/42/10 120/165/10 119/43/10
f 116/45/6 114/53/6 117/46/6
f 113/44/10 119/43/10 39/49/10
f 39/49/10 31/166/10 179/92/10
f 31/166/10 121/167/10 154/101/10
f 130/97/13 31/166/13 171/98/13
f 154/101/10 137/100/10 31/166/10
f 137/100/10 171/98/10 31/166/10
f 130/97/10 162/95/10 31/166/10
f 162/95/10 145/94/10 31/166/10
f 145/94/10 179/92/10 31/166/10
f 179/92/14 125/91/14 39/49/14
f 125/91/10 157/77/10 39/49/10
f 157/77/10 140/76/10 39/49/10
f 140/76/10 174/74/10 39/49/10
f 174/74/10 132/73/10 39/49/10
f 166/65/10 149/64/10 39/49/10
f 149/64/10 183/168/10 39/49/10
f 132/73/10 166/65/10 39/49/10
f 183/168/10 67/48/10 39/49/10
f 66/57/10 184/56/10 90/169/10
f 184/56/10 150/170/10 94/171/10
f 66/57/10 90/169/10 93/172/10
f 150/170/10 167/63/10 96/173/10
f 167/63/10 133/174/10 96/173/10
f 96/173/10 133/174/10 86/175/10
f 133/174/10 175/72/10 86/175/10
f 175/72/10 141/176/10 85/177/10
f 86/175/10 175/72/10 85/177/10
f 141/176/10 158/75/10 95/178/10
f 126/179/10 180/90/10 101/180/10
f 180/90/10 146/181/10 101/180/10
f 158/75/10 126/179/10 100/182/10
f 120/165/10 115/42/10 66/57/10
f 85/177/10 141/176/10 95/178/10
f 120/165/10 66/57/10 5/183/10
f 5/183/10 66/57/10 92/184/10
f 1/185/10 25/186/10 84/187/10
f 25/186/10 5/183/10 91/188/10
f 84/187/10 25/186/10 87/189/10
f 100/182/10 126/179/10 101/180/10
f 146/181/10 163/93/10 102/190/10
f 163/93/10 187/191/10 104/192/10
f 187/191/10 188/96/10 105/193/10
f 104/192/10 187/191/10 105/193/10
f 188/96/10 189/194/10 106/195/10
f 189/194/10 155/99/10 106/195/10
f 155/99/10 122/196/10 58/197/10
f 58/197/10 32/198/10 107/199/10
f 32/198/10 9/200/10 99/201/10
f 107/199/10 32/198/10 109/202/10
f 20/203/10 2/204/10 64/205/10
f 2/204/10 36/206/10 64/205/10
f 9/200/10 20/203/10 108/207/10
f 155/99/10 58/197/10 103/208/10
f 103/208/10 58/197/10 107/199/10
f 19/209/10 1/185/10 84/187/10
f 87/189/10 25/186/10 88/210/10
f 66/57/10 93/172/10 92/184/10
f 184/56/10 94/171/10 90/169/10
f 109/202/10 32/198/10 99/201/10
f 20/203/10 64/205/10 108/207/10
f 88/210/10 25/186/10 89/211/10
f 89/211/10 25/186/10 91/188/10
f 108/207/10 98/212/10 9/200/10
f 98/212/10 99/201/10 9/200/10
f 92/184/10 91/188/10 5/183/10
f 155/99/10 103/208/10 106/195/10
f 94/171/10 150/170/10 96/173/10
f 188/96/10 106/195/10 105/193/10
f 104/192/10 102/190/10 163/93/10
f 101/180/10 146/181/10 102/190/10
f 158/75/10 100/182/10 97/50/10
f 95/178/10 158/75/10 97/50/10
f 13/213/10 8/214/10 41/52/10
f 41/52/10 95/178/10 97/50/10
f 43/51/10 13/213/10 41/52/10
f 59/54/6 185/58/6 33/55/6
f 185/58/6 151/215/6 33/55/6
f 151/215/6 168/60/6 33/55/6
f 168/60/6 134/216/6 33/55/6
f 134/216/6 176/66/6 33/55/6
f 176/66/6 142/217/6 33/55/6
f 159/69/6 127/218/6 26/219/6
f 127/218/6 181/78/6 26/219/6
f 142/217/6 159/69/6 33/55/6
f 181/78/6 147/220/6 26/219/6
f 147/220/6 164/81/6 26/219/6
f 164/81/6 131/221/6 26/219/6
f 131/221/6 172/84/6 26/219/6
f 172/84/6 138/222/6 26/219/6
f 156/87/6 123/223/6 26/219/6
f 138/222/6 156/87/6 26/219/6
f 33/55/6 159/69/6 26/219/6
f 33/55/6 29/224/6 114/53/6
f 29/224/6 117/46/6 114/53/6
f 67/48/10 183/168/10 184/56/10
f 185/58/6 59/54/6 60/59/6
f 168/60/6 151/215/6 152/61/6
f 167/63/10 150/170/10 149/64/10
f 176/66/6 134/216/6 135/67/6
f 159/69/6 142/217/6 143/70/6
f 175/72/10 133/174/10 132/73/10
f 158/75/10 141/176/10 140/76/10
f 181/78/6 127/218/6 128/79/6
f 164/81/6 147/220/6 148/82/6
f 172/84/6 131/221/6 191/85/6
f 156/87/6 138/222/6 139/88/6
f 180/90/10 126/179/10 125/91/10
f 163/93/10 146/181/10 145/94/10
f 188/96/10 187/191/10 130/97/10
f 155/99/10 189/194/10 137/100/10
usemtl window.material
f 161/225/6 114/226/6 129/227/6
f 40/228/1 30/229/1 112/230/1
f 67/231/10 115/232/10 113/233/10
f 151/215/6 186/23/6 152/61/6
f 134/216/6 169/62/6 135/67/6
f 150/170/10 183/168/10 149/64/10
f 133/174/10 166/65/10 132/73/10
f 142/217/6 177/68/6 143/70/6
f 141/176/10 174/74/10 140/76/10
f 127/218/6 160/71/6 128/79/6
f 147/220/6 182/80/6 148/82/6
f 131/221/6 165/83/6 191/85/6
f 138/222/6 173/86/6 139/88/6
f 126/179/10 157/77/10 125/91/10
f 146/181/10 179/92/10 145/94/10
f 187/191/10 162/95/10 130/97/10
f 189/194/10 171/98/10 137/100/10
f 154/101/10 121/167/10 57/104/10
f 190/89/6 124/128/6 69/103/6
f 116/234/6 60/235/6 153/236/6
f 136/237/6 170/238/6 116/234/6
f 170/238/6 129/227/6 116/234/6
f 116/234/6 153/236/6 136/237/6
f 59/239/6 114/226/6 178/240/6
f 114/226/6 116/234/6 129/227/6
f 178/240/6 114/226/6 144/241/6
f 161/225/6 144/241/6 114/226/6
f 40/228/1 52/242/1 30/229/1
f 67/231/10 66/243/10 115/232/10
f 151/215/6 185/58/6 186/23/6
f 134/216/6 168/60/6 169/62/6
f 150/170/10 184/56/10 183/168/10
f 133/174/10 167/63/10 166/65/10
f 142/217/6 176/66/6 177/68/6
f 141/176/10 175/72/10 174/74/10
f 127/218/6 159/69/6 160/71/6
f 147/220/6 181/78/6 182/80/6
f 131/221/6 164/81/6 165/83/6
f 138/222/6 172/84/6 173/86/6
f 126/179/10 158/75/10 157/77/10
f 146/181/10 180/90/10 179/92/10
f 187/191/10 163/93/10 162/95/10
f 189/194/10 188/96/10 171/98/10
f 57/104/10 122/196/10 155/99/10
f 155/99/10 154/101/10 57/104/10
f 69/103/6 123/223/6 156/87/6
f 156/87/6 190/89/6 69/103/6
l 57 56
l 69 47
l 56 122
l 47 124
